<svg width="75" height="75" viewBox="0 0 75 75" fill="none" xmlns="http://www.w3.org/2000/svg">
<rect x="18.75" y="22.5" width="37.5" height="30.75" fill="white"/>
<path d="M28.125 27.4687V47.5313C28.125 48.9688 28.7812 50.0625 30.0937 50.8125C31.4062 51.5625 32.6875 51.5 33.9375 50.625L49.5 40.6875C50.6875 39.9375 51.2813 38.875 51.2813 37.5C51.2813 36.125 50.6875 35.0625 49.5 34.3125L33.9375 24.375C32.6875 23.5 31.4062 23.4375 30.0937 24.1875C28.7812 24.9375 28.125 26.0312 28.125 27.4687ZM37.5 75C32.3125 75 27.4375 74.015 22.875 72.045C18.3125 70.0775 14.3438 67.4063 10.9688 64.0313C7.59375 60.6563 4.9225 56.6875 2.955 52.125C0.985 47.5625 0 42.6875 0 37.5C0 32.3125 0.985 27.4375 2.955 22.875C4.9225 18.3125 7.59375 14.3438 10.9688 10.9688C14.3438 7.59375 18.3125 4.92125 22.875 2.95125C27.4375 0.98375 32.3125 0 37.5 0C42.6875 0 47.5625 0.98375 52.125 2.95125C56.6875 4.92125 60.6563 7.59375 64.0313 10.9688C67.4063 14.3438 70.0775 18.3125 72.045 22.875C74.015 27.4375 75 32.3125 75 37.5C75 42.6875 74.015 47.5625 72.045 52.125C70.0775 56.6875 67.4063 60.6563 64.0313 64.0313C60.6563 67.4063 56.6875 70.0775 52.125 72.045C47.5625 74.015 42.6875 75 37.5 75Z" fill="black"/>
</svg>
