<?xml version="1.0" encoding="utf-8"?>
<!-- Generator: Adobe Illustrator 24.3.0, SVG Export Plug-In . SVG Version: 6.00 Build 0)  -->
<svg version="1.1" id="Calque_1" xmlns="http://www.w3.org/2000/svg" xmlns:xlink="http://www.w3.org/1999/xlink" x="0px" y="0px"
	 viewBox="0 0 65.3 20.9" style="enable-background:new 0 0 65.3 20.9;" xml:space="preserve">
<style type="text/css">
	.st0{fill:#FFFFFF;}
</style>
<g>
	<path class="st0" d="M6,11.7c-3,0-5.4-2.5-5.4-5.4c0-3,2.4-5.4,5.4-5.4c1.5,0,2.8,0.6,3.8,1.6L9.1,3.1C8.3,2.2,7.1,1.8,6,1.8
		c-2.4,0-4.4,2.1-4.4,4.6S3.6,11,6,11c1.1,0,2.1-0.4,2.9-1.1V6.8H7.8V5.9h2v4.3C8.8,11.1,7.5,11.7,6,11.7z M15.3,11.7
		c-2.1,0-3.8-1.7-3.8-3.8s1.7-3.8,3.8-3.8s3.8,1.7,3.8,3.8S17.4,11.7,15.3,11.7z M15.3,5c-1.6,0-2.8,1.3-2.8,2.9s1.3,2.9,2.8,2.9
		s2.8-1.3,2.8-2.9C18.2,6.4,16.9,5,15.3,5z M25,11.6c0-0.3-0.4-0.8-1.3-1.2l-1.9-1.1c-1-0.6-1.6-1.3-1.6-2.5c0-1.4,1.2-2.6,2.8-2.6
		c1.5,0,2.8,1.2,2.8,2.8h-0.9c0-1.1-0.8-1.9-1.8-1.9s-1.8,0.8-1.8,1.7c0,0.8,0.3,1.2,1.1,1.7l2.1,1.2c1.2,0.7,1.6,1.5,1.6,2L25,11.6
		L25,11.6z M31.8,11.6c0-0.3-0.4-0.8-1.3-1.2l-1.9-1.1C27.6,8.7,27,8,27,6.8c0-1.4,1.2-2.6,2.8-2.6s2.8,1.2,2.8,2.8h-0.9
		c0-1.1-0.8-1.9-1.8-1.9s-1.8,0.8-1.8,1.7c0,0.8,0.3,1.2,1.1,1.7l2.1,1.2c1.2,0.7,1.6,1.5,1.6,2C32.7,11.6,31.8,11.6,31.8,11.6z
		 M37.6,11.7c-2.1,0-3.8-1.7-3.8-3.8s1.7-3.8,3.8-3.8c1.1,0,2.1,0.5,2.8,1.2l-4.6,4.8c1.2,1,2.9,0.9,3.9-0.3l0.7,0.6
		C39.7,11.3,38.7,11.7,37.6,11.7z M37.6,5c-1.6,0-2.8,1.3-2.8,2.9c0,0.5,0.1,1.1,0.4,1.5l3.8-4C38.6,5.2,38.1,5,37.6,5z"/>
	<path class="st0" d="M42.9,11.6l-0.5-1.4V1h1v9.2l0.6,1.5L42.9,11.6L42.9,11.6z M46,2.9v-2h1v2H46z M46,11.6V4.3h1v7.3H46L46,11.6z
		 M55.1,11.6V7.3c0-1.2-1-2.3-2.3-2.3c-1.2,0-2.3,1-2.3,2.3v4.3h-1V6l-0.7-1.8h1l0.5,1.2c0.6-0.8,1.5-1.3,2.5-1.3
		c1.8,0,3.2,1.4,3.2,3.2v4.3L55.1,11.6L55.1,11.6z"/>
	<g>
		<path class="st0" d="M50.5,18.4L50.4,18c-0.3,0.3-0.7,0.5-1.1,0.5c-1,0-1.7-0.8-1.8-1.8c0-1,0.8-1.8,1.8-1.8
			c0.4,0,0.8,0.2,1.1,0.4v-1.9h0.4v4.3l0.2,0.7C51,18.4,50.5,18.4,50.5,18.4z M50.3,15.9c-0.2-0.3-0.6-0.5-1.1-0.5
			c-0.7,0-1.3,0.6-1.3,1.3c0,0.7,0.6,1.3,1.3,1.3c0.4,0,0.8-0.2,1.1-0.5C50.3,17.5,50.3,15.9,50.3,15.9z M51.7,14.4v-0.9h0.4v0.9
			H51.7z M51.7,18.4V15h0.4v3.4H51.7z M55.5,20h-0.6c0.3-0.2,0.6-0.6,0.6-1c0-0.6-0.5-1.1-1.1-1.1c-0.8,0-1.5-0.6-1.5-1.4
			c0-0.8,0.7-1.5,1.5-1.5c0.4,0,0.7,0.1,1,0.4l0.1-0.3h0.4l-0.2,0.7c0.1,0.2,0.2,0.5,0.2,0.7c0,0.5-0.3,1-0.7,1.2
			c0.5,0.2,0.8,0.8,0.8,1.3C55.9,19.3,55.8,19.7,55.5,20z M54.4,15.4c-0.6,0-1,0.5-1,1c0,0.6,0.5,1,1,1c0.6,0,1-0.5,1-1
			C55.4,15.8,54.9,15.4,54.4,15.4z M56.6,14.4v-0.9H57v0.9H56.6z M56.6,18.4V15H57v3.4H56.6z M58.8,15.4v2l0.4,1h-0.5l-0.4-1v-2
			h-0.8V15h0.8v-1.6h0.4V15h0.8v0.4H58.8L58.8,15.4z M62.8,18.4L62.7,18c-0.3,0.3-0.7,0.5-1.1,0.5c-1,0-1.8-0.8-1.8-1.8
			s0.8-1.8,1.8-1.8c0.4,0,0.8,0.2,1.1,0.4V15h0.4v2.8l0.2,0.7C63.2,18.4,62.8,18.4,62.8,18.4z M62.5,15.9c-0.2-0.3-0.6-0.5-1.1-0.5
			c-0.7,0-1.3,0.6-1.3,1.3c0,0.7,0.6,1.3,1.3,1.3c0.4,0,0.8-0.2,1.1-0.5C62.5,17.5,62.5,15.9,62.5,15.9z M64.2,18.4L64,17.7v-4.3
			h0.4v4.3l0.3,0.7L64.2,18.4L64.2,18.4z"/>
	</g>
	<path class="st0" d="M63.4,11.6l-2.8-4.1l-1.5,1.8v2.3h-1V1h1v7l3.1-3.7h1.2l-2.1,2.4l3.3,4.8h-1.2C63.4,11.5,63.4,11.6,63.4,11.6z
		"/>
</g>
</svg>
