<svg width="13" height="13" viewBox="0 0 13 13" fill="none" xmlns="http://www.w3.org/2000/svg">
<path d="M5.05556 2.16667V3.61111H1.44444V11.5556H9.38889V7.94444H10.8333V12.2778C10.8333 12.4693 10.7572 12.653 10.6218 12.7885C10.4864 12.9239 10.3027 13 10.1111 13H0.722222C0.530677 13 0.346977 12.9239 0.211534 12.7885C0.076091 12.653 0 12.4693 0 12.2778V2.88889C0 2.69734 0.076091 2.51364 0.211534 2.3782C0.346977 2.24276 0.530677 2.16667 0.722222 2.16667H5.05556ZM13 0V5.77778H11.5556V2.46494L5.92728 8.09394L4.90606 7.07272L10.5336 1.44444H7.22222V0H13Z" fill="black"/>
</svg>
