<?xml version="1.0" encoding="utf-8"?>
<!-- Generator: Adobe Illustrator 24.3.0, SVG Export Plug-In . SVG Version: 6.00 Build 0)  -->
<svg version="1.1" id="Capa_1" xmlns="http://www.w3.org/2000/svg" xmlns:xlink="http://www.w3.org/1999/xlink" x="0px" y="0px"
	 viewBox="0 0 95.3 95.3" style="enable-background:new 0 0 95.3 95.3;" xml:space="preserve">
<style type="text/css">
	.st0{fill:#FFFFFF;}
</style>
<g>
	<path class="st0" d="M93.3,0H2C0.9,0,0,0.9,0,2v91.3c0,1.1,0.9,2,2,2h48.5V63.5H40.3c-0.9,0-1.6-0.7-1.6-1.6V49
		c0-0.9,0.7-1.6,1.6-1.6h10.2v-8.9c0-11.7,7.4-19.3,18.8-19.3l10.2,0c0.9,0,1.6,0.7,1.6,1.6v12c0,0.9-0.7,1.6-1.6,1.6l-6.9,0
		c-4.7,0-5.6,1.8-5.6,5.5v7.6h12c0.4,0,0.8,0.2,1.1,0.5c0.3,0.3,0.5,0.7,0.5,1.1l0,12.9c0,0.9-0.7,1.6-1.6,1.6h-12v31.9h26.2
		c1.1,0,2-0.9,2-2V2C95.3,0.9,94.4,0,93.3,0z"/>
</g>
</svg>
