<?xml version="1.0" encoding="utf-8"?>
<!-- Generator: Adobe Illustrator 24.3.0, SVG Export Plug-In . SVG Version: 6.00 Build 0)  -->
<svg version="1.1" id="Calque_1" xmlns="http://www.w3.org/2000/svg" xmlns:xlink="http://www.w3.org/1999/xlink" x="0px" y="0px"
	 viewBox="0 0 24 24" style="enable-background:new 0 0 24 24;" xml:space="preserve">
<style type="text/css">
	.st0{fill:#FFFFFF;}
</style>
<path class="st0" d="M12,4.3c-2.7,0-5.3,0.8-7.6,2.4H0l2,2.1c-2.4,2.2-2.6,6-0.4,8.5c1.1,1.2,2.7,2,4.4,2c1.5,0,3-0.6,4.1-1.6
	l1.9,2.1l1.9-2.1c1.1,1,2.6,1.6,4.1,1.6c3.3,0,6-2.7,6-6c0-1.7-0.7-3.3-2-4.4l2-2.1h-4.4C17.4,5.1,14.7,4.3,12,4.3z M12,6.3
	c1.5,0,3.1,0.3,4.5,0.9c-2.6,1-4.5,3.3-4.5,5.9c0-2.7-1.9-5-4.5-5.9C8.9,6.6,10.5,6.3,12,6.3L12,6.3z M6,9.2c2.2,0,4.1,1.8,4.1,4.1
	S8.2,17.3,6,17.3s-4.1-1.8-4.1-4.1S3.8,9.2,6,9.2z M18,9.2c2.2,0,4.1,1.8,4.1,4.1c0,2.2-1.8,4.1-4.1,4.1s-4.1-1.8-4.1-4.1
	S15.8,9.2,18,9.2z M6,11.1c-1.2,0-2.1,1-2.1,2.1c0,1.2,1,2.1,2.1,2.1c1.2,0,2.1-1,2.1-2.1S7.2,11.1,6,11.1z M18,11.1
	c-1.2,0-2.1,1-2.1,2.1c0,1.2,1,2.1,2.1,2.1c1.2,0,2.1-1,2.1-2.1S19.2,11.1,18,11.1z"/>
</svg>
